<?xml version="1.0" standalone="no"?>
<!DOCTYPE svg PUBLIC "-//W3C//DTD SVG 20010904//EN"
 "http://www.w3.org/TR/2001/REC-SVG-20010904/DTD/svg10.dtd">
<svg version="1.0" xmlns="http://www.w3.org/2000/svg"
 width="281.000000pt" height="281.000000pt" viewBox="0 0 281.000000 281.000000"
 preserveAspectRatio="xMidYMid meet">
<metadata>
Created by potrace 1.11, written by Peter Selinger 2001-2013
</metadata>
<g transform="translate(0.000000,281.000000) scale(0.100000,-0.100000)"
fill="#000000" stroke="none">
<path d="M1100 2592 c-130 -44 -258 -184 -335 -370 -31 -76 -41 -91 -73 -107
-58 -30 -144 -99 -182 -145 -19 -24 -45 -55 -57 -70 -63 -76 -134 -264 -166
-435 -22 -116 -14 -379 15 -490 82 -320 245 -550 460 -650 48 -22 64 -24 173
-22 114 2 123 4 174 33 71 41 180 151 222 224 19 33 39 60 44 60 6 0 16 -13
22 -29 18 -50 105 -173 158 -224 100 -97 202 -137 341 -133 79 2 97 7 158 37
151 75 294 251 363 444 50 141 65 229 67 419 4 265 -58 490 -189 681 -26 37
-61 97 -78 134 -63 135 -125 208 -211 253 -64 34 -194 32 -262 -3 -28 -15 -56
-24 -61 -20 -5 3 -19 31 -31 61 -30 74 -80 159 -120 204 -51 58 -158 134 -210
150 -62 18 -165 17 -222 -2z m226 -102 c89 -44 167 -128 223 -237 11 -23 39
-92 60 -153 36 -101 70 -169 72 -145 0 6 2 17 4 25 1 8 5 30 8 48 7 45 29 67
95 98 65 31 111 29 189 -8 48 -22 150 -114 139 -125 -3 -3 -28 4 -55 16 -45
19 -97 27 -158 22 -41 -2 -24 -29 35 -56 189 -86 264 -151 344 -294 36 -63 80
-180 92 -246 4 -16 9 -41 12 -55 13 -53 12 -326 -1 -400 -43 -244 -182 -467
-341 -545 -88 -44 -196 -51 -286 -19 -103 36 -239 168 -307 297 -25 47 -28 62
-20 85 35 100 47 365 23 492 -44 230 -165 419 -301 470 -135 50 -260 12 -348
-105 -164 -219 -161 -574 6 -743 40 -40 83 -62 96 -49 3 4 -15 26 -40 50 -84
82 -116 176 -111 332 2 108 22 181 70 263 54 93 119 132 215 132 124 0 258
-161 302 -364 18 -79 16 -280 -3 -363 -41 -184 -153 -343 -293 -415 -56 -30
-70 -33 -152 -33 -80 0 -97 3 -148 29 -150 76 -285 278 -348 522 -36 137 -33
359 6 509 42 162 131 338 211 419 46 46 113 85 160 92 54 8 64 21 35 43 -22
17 -22 18 -6 66 96 287 329 441 521 345z"/>
</g>
</svg>
