<?xml version="1.0" standalone="no"?>
<!DOCTYPE svg PUBLIC "-//W3C//DTD SVG 20010904//EN"
 "http://www.w3.org/TR/2001/REC-SVG-20010904/DTD/svg10.dtd">
<svg version="1.0" xmlns="http://www.w3.org/2000/svg"
 width="960.000000pt" height="638.000000pt" viewBox="0 0 960.000000 638.000000"
 preserveAspectRatio="xMidYMid meet">
<metadata>
Created by potrace 1.13, written by Peter Selinger 2001-2015
</metadata>
<g transform="translate(0.000000,638.000000) scale(0.100000,-0.100000)"
fill="#000000" stroke="none">
<path d="M6007 4610 c-55 -10 -73 -33 -102 -135 -134 -452 -205 -830 -246
-1300 -11 -130 -14 -144 -45 -195 -43 -73 -136 -161 -204 -196 -46 -23 -68
-28 -135 -28 -68 -1 -89 3 -137 27 -105 51 -170 156 -203 322 -51 259 42 674
206 919 57 84 167 188 234 221 74 37 136 32 177 -13 27 -32 48 -88 48 -132 0
-43 -29 -153 -53 -200 -50 -100 -173 -190 -307 -223 -68 -17 -85 -40 -51 -66
59 -45 173 -54 246 -20 133 63 248 293 250 499 0 80 -4 102 -24 143 -63 128
-222 140 -406 29 -79 -48 -218 -187 -285 -286 -62 -93 -139 -251 -169 -351
-44 -142 -55 -215 -54 -370 0 -136 2 -157 27 -228 93 -274 341 -415 584 -333
83 28 137 64 216 145 33 33 63 58 68 55 4 -3 8 -17 8 -32 1 -38 34 -106 61
-126 61 -42 162 -2 238 94 l40 51 21 -41 c31 -61 92 -117 142 -130 125 -34
283 53 368 203 24 43 43 63 85 86 29 17 56 35 60 41 16 26 23 1 27 -112 5
-131 18 -173 60 -202 74 -52 166 25 265 224 l48 95 5 -120 c6 -126 16 -160 60
-200 32 -29 105 -25 158 9 38 24 112 108 112 127 0 24 29 5 44 -28 36 -80 80
-113 151 -113 39 0 51 5 90 41 26 24 58 68 74 103 31 62 35 62 44 -6 13 -89
61 -143 127 -142 95 3 196 107 261 269 32 82 72 265 63 290 -4 9 -14 15 -22
13 -17 -3 -19 -10 -47 -138 -46 -209 -136 -357 -204 -335 -27 8 -51 75 -51
139 0 60 24 303 40 411 54 354 85 494 171 790 43 150 65 217 110 335 16 41 29
82 29 92 0 28 -37 41 -98 33 -61 -8 -97 -35 -108 -82 -3 -15 -15 -52 -25 -81
-41 -114 -137 -515 -164 -687 -8 -55 -20 -122 -25 -148 -6 -27 -10 -64 -10
-82 l0 -34 -70 6 c-61 5 -75 3 -124 -21 -122 -60 -210 -218 -237 -423 -12 -94
-34 -157 -75 -210 -53 -70 -100 -78 -129 -23 -36 71 2 491 54 588 6 11 11 32
11 46 0 21 -6 26 -32 30 -49 9 -99 -6 -121 -35 -11 -16 -25 -63 -34 -115 -33
-197 -167 -514 -217 -514 -7 0 -21 9 -31 20 -52 58 -14 451 55 575 11 20 20
42 20 50 0 20 -34 28 -91 20 -80 -11 -96 -45 -119 -255 -12 -102 -35 -151 -92
-193 -37 -27 -44 -16 -29 42 7 28 13 94 13 148 0 155 -46 233 -136 233 -102 0
-193 -109 -204 -247 -6 -84 28 -158 99 -211 27 -20 49 -44 49 -53 0 -31 -62
-140 -94 -164 -72 -55 -148 -19 -177 82 -41 139 10 425 94 535 53 69 80 83
149 81 72 -2 117 19 96 45 -10 11 -27 13 -79 9 -138 -12 -274 -105 -343 -236
-44 -83 -76 -204 -76 -286 0 -67 -22 -119 -78 -179 -42 -47 -75 -48 -102 -3
-17 27 -20 50 -20 142 0 94 17 282 35 390 3 16 14 89 26 160 42 266 107 521
209 827 39 114 70 215 70 226 0 30 -37 37 -113 22z m1767 -1170 c52 -19 60
-147 21 -305 -53 -209 -112 -323 -161 -313 -29 5 -54 50 -66 118 -28 161 55
453 142 497 30 15 32 15 64 3z m-1340 -89 c33 -36 36 -132 11 -278 -12 -66
-77 -20 -103 73 -38 131 28 276 92 205z"/>
<path d="M2008 4501 c-205 -46 -432 -225 -517 -408 -20 -44 -29 -52 -65 -63
-202 -60 -388 -194 -505 -363 -55 -81 -110 -208 -132 -307 -27 -124 -22 -315
11 -430 43 -150 162 -343 276 -451 118 -110 272 -200 419 -245 81 -24 106 -27
250 -28 174 -1 228 9 350 65 117 54 251 158 302 235 19 30 49 31 58 3 12 -35
154 -177 224 -223 163 -106 307 -148 511 -147 116 0 148 4 224 26 263 77 481
252 600 484 59 114 86 239 86 401 0 146 -6 186 -47 310 -45 133 -159 302 -259
382 -33 26 -72 71 -99 115 -119 189 -289 283 -514 283 -80 0 -112 -5 -172 -26
-122 -42 -121 -42 -145 8 -34 69 -109 162 -176 217 -80 65 -241 145 -337 165
-94 21 -245 19 -343 -3z m307 -86 c94 -22 213 -87 288 -156 80 -73 108 -111
176 -244 56 -111 92 -161 108 -152 6 4 13 29 17 55 4 29 14 56 25 66 25 22
149 66 209 73 108 12 289 -46 377 -121 47 -40 43 -52 -11 -33 -93 34 -121 39
-210 40 -154 1 -149 -27 12 -69 361 -93 564 -281 651 -603 21 -77 20 -275 -1
-366 -62 -257 -273 -485 -526 -568 -126 -42 -307 -47 -435 -13 -150 40 -335
158 -437 278 -61 73 -61 70 -37 124 49 116 66 324 36 449 -49 205 -174 363
-363 458 -78 40 -161 57 -271 57 -161 0 -264 -40 -375 -148 -154 -148 -204
-375 -121 -550 51 -109 190 -222 276 -226 46 -2 42 17 -8 37 -64 27 -127 86
-166 159 -33 60 -34 67 -34 168 0 101 2 108 37 180 44 91 119 168 198 206 65
31 195 43 279 25 192 -41 360 -225 392 -431 21 -136 -12 -308 -78 -413 -63
-101 -194 -211 -314 -265 -228 -104 -477 -87 -689 47 -185 116 -332 317 -386
526 -38 149 -14 337 61 488 138 276 331 436 547 454 38 3 71 10 74 15 3 4 -11
15 -30 23 -20 9 -36 18 -36 20 0 15 57 115 91 159 154 203 436 308 674 251z"/>
<path d="M4770 2176 c0 -64 -1 -119 -2 -123 -2 -5 22 -9 52 -11 150 -9 232
105 146 204 -33 38 -34 39 -115 42 l-81 4 0 -116z m126 72 c40 -31 44 -37 44
-84 0 -36 -5 -47 -36 -74 -55 -47 -67 -39 -78 53 -14 118 9 152 70 105z"/>
<path d="M5378 2185 c-1 -58 -2 -113 -2 -122 -1 -16 9 -18 78 -18 63 0 81 3
90 17 16 26 -1 34 -33 15 -40 -24 -60 -21 -71 9 -13 34 -13 47 4 69 12 17 17
18 41 7 22 -10 30 -10 36 -1 14 23 -2 36 -44 35 -38 -1 -42 2 -45 24 -4 45 11
56 60 43 47 -13 53 -11 45 12 -5 12 -23 15 -82 15 l-75 0 -2 -105z"/>
<path d="M5938 2273 c-39 -46 -29 -78 37 -123 38 -26 46 -36 43 -58 -4 -35
-36 -41 -58 -11 -21 26 -54 20 -43 -8 10 -26 23 -33 71 -33 32 0 49 6 67 25
43 42 28 82 -50 131 -46 30 -53 49 -23 68 13 8 22 6 41 -12 13 -12 26 -22 30
-22 14 0 6 48 -9 54 -32 12 -91 6 -106 -11z"/>
<path d="M6460 2288 c-1 -2 -1 -57 -2 -123 l-1 -120 28 0 28 0 0 120 -1 120
-26 3 c-14 2 -26 2 -26 0z"/>
<path d="M6955 2270 c-32 -21 -65 -73 -65 -103 0 -36 30 -87 62 -107 22 -13
51 -20 84 -20 71 0 95 21 102 88 l5 52 -32 0 c-30 0 -31 -1 -31 -48 0 -80 -39
-95 -96 -38 -45 45 -48 101 -6 145 40 43 64 47 101 15 33 -27 58 -23 46 8 -13
32 -125 38 -170 8z"/>
<path d="M7526 2281 c-3 -5 0 -24 8 -42 10 -26 11 -53 5 -109 -8 -76 -3 -97
24 -87 12 4 14 18 10 66 -9 99 -1 101 67 24 87 -98 95 -94 94 42 -1 86 -4 110
-15 110 -10 0 -14 -16 -14 -59 0 -33 -5 -61 -11 -63 -5 -2 -36 26 -68 62 -53
60 -86 79 -100 56z"/>
<path d="M8137 2272 c-35 -39 -17 -89 43 -123 41 -23 53 -40 44 -63 -11 -28
-38 -28 -60 0 -24 30 -44 25 -44 -11 0 -27 17 -35 74 -35 50 0 86 28 86 66 0
39 -15 59 -65 88 -29 18 -45 34 -45 47 0 32 27 33 62 3 33 -27 33 -27 36 -5 7
42 -4 51 -61 51 -40 0 -58 -5 -70 -18z"/>
</g>
</svg>
